<svg width="104" height="50" viewBox="0 0 104 50" fill="none" xmlns="http://www.w3.org/2000/svg">
<rect width="104" height="50" rx="3" fill="white"/>
<path d="M12.5507 34.7022V33.3898C12.5507 32.8969 12.2415 32.5644 11.7443 32.5587C11.4554 32.5402 11.1779 32.6833 11.0238 32.9315C10.8812 32.6891 10.6206 32.5471 10.3442 32.5598C10.1041 32.5482 9.87642 32.6752 9.74388 32.8714V32.6175H9.30212V34.7067H9.7552V33.5525C9.7552 33.1946 9.95119 32.9984 10.2559 32.9984C10.5617 32.9984 10.7022 33.1946 10.7022 33.5525V34.7183H11.1552V33.564C11.1552 33.2062 11.3614 33.01 11.6571 33.01C11.9516 33.01 12.1101 33.2062 12.1101 33.564V34.7298H12.5632L12.5519 34.7183L12.5507 34.7022ZM19.2178 32.6129H18.4929V31.978H18.0398V32.6129H17.623V33.0285H18.0387V33.9807C18.0387 34.4655 18.2222 34.7541 18.7501 34.7541C18.9472 34.7541 19.1397 34.6987 19.3073 34.5925L19.1782 34.2035C19.0582 34.275 18.9233 34.3154 18.7841 34.3189C18.5575 34.3189 18.4896 34.1804 18.4896 33.9726V33.0285H19.2178V32.6129H19.2156H19.2178ZM23.0238 32.5598C22.8018 32.5598 22.5934 32.6752 22.4834 32.8714V32.6175H22.0417V34.7067H22.4948V33.5409C22.4948 33.1946 22.642 33.01 22.9365 33.01C23.0385 33.01 23.1291 33.033 23.2197 33.0677L23.3557 32.6406C23.2537 32.606 23.1517 32.5829 23.0385 32.5829L23.0238 32.5598ZM17.2696 32.7791C17.0182 32.6291 16.7259 32.5598 16.4337 32.5598C15.9149 32.5598 15.5796 32.8138 15.5796 33.2293C15.5796 33.5755 15.8288 33.7834 16.2876 33.8526L16.5027 33.8872C16.752 33.9219 16.8652 33.9911 16.8652 34.1066C16.8652 34.2682 16.7066 34.3605 16.4008 34.3605C16.163 34.372 15.9251 34.2912 15.7212 34.1412L15.506 34.499C15.7665 34.6837 16.0837 34.776 16.4008 34.776C17.0011 34.776 17.341 34.499 17.341 34.095C17.341 33.7256 17.0691 33.5409 16.6273 33.4717L16.4348 33.4486C16.2422 33.4255 16.0837 33.3909 16.0837 33.2408C16.0837 33.1023 16.2309 32.9984 16.4801 32.9984C16.7066 32.9984 16.9219 33.0677 17.1258 33.1831L17.3161 32.8138L17.2696 32.7791ZM29.2242 32.5598C29.0022 32.5598 28.7938 32.6752 28.6839 32.8714V32.6175H28.2421V34.7067H28.6885V33.5409C28.6885 33.1946 28.8244 33.01 29.1189 33.01C29.2095 33.01 29.3114 33.033 29.3907 33.0677L29.5267 32.6406C29.4248 32.606 29.3114 32.5829 29.2095 32.5829L29.2242 32.5598ZM23.4746 33.6679C23.4746 34.3028 23.9084 34.7645 24.5688 34.7645C24.8361 34.7876 25.1012 34.6952 25.3051 34.5221L25.0944 34.1527C24.9403 34.2797 24.7523 34.3374 24.5586 34.3489C24.2029 34.3489 23.9413 34.0834 23.9413 33.6795C23.9413 33.2755 24.2018 33.0215 24.5586 33.01C24.7512 33.0215 24.9403 33.0792 25.0944 33.2062L25.3096 32.8484C25.1023 32.6752 24.8384 32.5829 24.571 32.5945C23.9107 32.5945 23.4769 33.0561 23.4769 33.691H23.4746V33.6679ZM27.6543 33.6679V32.6291H27.2069V32.883C27.0596 32.6868 26.8104 32.5713 26.5612 32.5829C25.9836 32.5829 25.5418 33.0446 25.5418 33.6795C25.5418 34.3143 25.9949 34.776 26.5726 34.776C26.8218 34.7876 27.0709 34.6721 27.2182 34.4759V34.7298H27.6713V33.691L27.6543 33.6679ZM25.9926 33.6679C25.9926 33.2986 26.2191 32.9984 26.6042 32.9984C26.9667 32.9984 27.216 33.287 27.216 33.6679C27.216 34.0488 26.9667 34.3374 26.5929 34.3374C26.2078 34.3374 25.97 34.0373 25.97 33.6679H25.9926ZM20.6009 32.5713C20.0006 32.5713 19.5815 33.0215 19.5815 33.6679C19.5815 34.3143 20.0119 34.7645 20.6349 34.7645C20.9407 34.776 21.2352 34.6721 21.4731 34.4759L21.2466 34.1412C21.0767 34.2797 20.8614 34.3605 20.6462 34.3605C20.3517 34.3605 20.0912 34.2335 20.0346 33.8526H21.5524C21.5524 33.7949 21.5637 33.7371 21.5637 33.6795C21.5637 33.033 21.156 32.5829 20.5896 32.5829L20.6009 32.5713ZM20.5896 32.9754C20.8728 32.9754 21.054 33.16 21.1106 33.4832H20.047C20.0969 33.1831 20.2735 32.9754 20.5941 32.9754H20.5896ZM31.7807 33.6679V31.7737H31.339V32.8703C31.1804 32.666 30.9425 32.5517 30.6821 32.5633C30.1044 32.5633 29.6513 33.025 29.6513 33.6599C29.6513 34.297 30.1044 34.7587 30.6707 34.7587C30.9199 34.7703 31.1578 34.6548 31.3163 34.4528V34.7067H31.7581V33.6679H31.7468H31.7807ZM30.1157 33.6679C30.1157 33.3101 30.3535 32.9984 30.7386 32.9984C31.1011 32.9984 31.3504 33.287 31.3504 33.6679C31.3504 34.0488 31.1011 34.3374 30.7273 34.3374C30.3422 34.3374 30.1044 34.0373 30.1044 33.6679H30.1157ZM15.0506 33.6679V32.6291H14.61V32.883C14.456 32.6868 14.2135 32.5713 13.9621 32.5829C13.3867 32.5829 12.937 33.0446 12.937 33.6795C12.937 34.3143 13.3901 34.776 13.961 34.776C14.2124 34.7876 14.4548 34.6721 14.6089 34.4759V34.7298H15.0619V33.6795L15.0506 33.6679ZM13.3856 33.6679C13.3856 33.3101 13.6234 32.9984 14.0085 32.9984C14.371 32.9984 14.6202 33.287 14.6202 33.6679C14.6202 34.0488 14.371 34.3374 13.9972 34.3374C13.6121 34.3374 13.3743 34.0373 13.3743 33.6679H13.3856ZM32.517 34.4182C32.5397 34.4182 32.5736 34.4298 32.5963 34.4413C32.619 34.4528 32.6416 34.4759 32.6529 34.4875C32.6642 34.5105 32.6869 34.5336 32.6983 34.5567C32.7209 34.6144 32.7209 34.6721 32.6983 34.7183C32.6869 34.7414 32.6642 34.7645 32.6529 34.7876C32.6303 34.8107 32.6077 34.8222 32.585 34.8337C32.551 34.8453 32.5284 34.8568 32.4944 34.8568C32.4151 34.8568 32.3358 34.8107 32.3018 34.7298C32.2791 34.6837 32.2791 34.626 32.3018 34.5682C32.3132 34.5451 32.3245 34.5221 32.3471 34.499C32.3697 34.4875 32.3924 34.4644 32.4151 34.4528C32.4377 34.4413 32.4717 34.4413 32.4944 34.4413L32.517 34.4182ZM32.517 34.7876C32.5397 34.7876 32.5623 34.7876 32.5736 34.776L32.619 34.7414C32.6416 34.7183 32.6642 34.6721 32.6642 34.626C32.6642 34.5798 32.6416 34.5451 32.619 34.5105L32.5623 34.4759C32.5397 34.4644 32.517 34.4644 32.4944 34.4644C32.4717 34.4644 32.449 34.4759 32.4264 34.4759L32.3697 34.5105C32.3358 34.5451 32.32 34.5914 32.32 34.626C32.32 34.6721 32.3426 34.7183 32.3709 34.7414C32.389 34.7645 32.4049 34.776 32.4253 34.776C32.4479 34.7876 32.4626 34.7991 32.4842 34.7876V34.7991L32.517 34.7876ZM32.5284 34.5336C32.5397 34.5336 32.5623 34.5451 32.585 34.5567C32.5963 34.5682 32.5963 34.5798 32.5963 34.6029C32.5963 34.6144 32.585 34.626 32.5736 34.6375C32.5623 34.6491 32.5397 34.6606 32.5284 34.6606L32.585 34.7298H32.5284L32.4717 34.6606H32.449V34.7414H32.4038V34.544H32.4876L32.5284 34.5336ZM32.4717 34.5682V34.626H32.5397C32.5397 34.626 32.551 34.6144 32.5397 34.6144C32.5397 34.6029 32.5318 34.6029 32.5284 34.5914H32.4513L32.4717 34.5682Z" fill="#4A4746"/>
<path d="M17.124 16.6868H23.8829V29.0607H17.124V16.6868Z" fill="#F16022"/>
<path d="M17.5544 22.8745C17.5499 20.4587 18.6361 18.1767 20.4995 16.6853C17.3302 14.1482 12.7823 14.5176 10.0491 17.5337C7.31697 20.5487 7.31697 25.1981 10.0491 28.2131C12.7823 31.2292 17.3302 31.5986 20.4972 29.0615C18.6339 27.569 17.5476 25.287 17.5522 22.8745H17.5544Z" fill="#E91D25"/>
<path d="M33 22.8741C33 25.8867 31.3123 28.6339 28.6504 29.9498C25.9919 31.268 22.8282 30.9217 20.5028 29.061C22.365 27.5674 23.4524 25.2865 23.4524 22.8718C23.4524 20.457 22.365 18.1762 20.5028 16.6849C22.8282 14.8206 25.993 14.4744 28.6527 15.7914C31.3123 17.1073 33 19.8579 33 22.8718V22.8741ZM32.2592 27.7509V27.497H32.3611V27.4439H32.1052V27.49H32.2071V27.744H32.2592V27.7509ZM32.7554 27.7509V27.4439H32.6761L32.5877 27.6516L32.5005 27.4439H32.4212V27.744H32.4779V27.5131L32.5628 27.7094H32.6194L32.7055 27.5016V27.7325H32.7622H32.7554V27.7509Z" fill="#F69E1E"/>
<path d="M47.5685 29.0003L49.1026 20.2026H51.489L49.989 29.0003H47.6026H47.5685Z" fill="#004686"/>
<path d="M58.8194 20.3384C58.3421 20.203 57.5921 20 56.6376 20C54.2511 20 52.5466 21.1843 52.5466 22.91C52.5466 24.1958 53.7398 24.9403 54.6602 25.2786C55.6148 25.7523 55.9216 26.023 55.9216 26.4291C55.9216 27.0043 55.1716 27.275 54.4557 27.275C53.5011 27.275 52.9898 27.1397 52.1716 26.8351L51.8307 26.6659L51.4897 28.6962C52.1034 28.8992 53.1943 29.1361 54.217 29.1361C56.7739 29.1361 58.4785 27.9518 58.4785 26.0907C58.4785 25.0756 57.7967 24.3312 56.433 23.7221C55.5807 23.2822 55.0693 23.0453 55.0693 22.6055C55.0693 22.2671 55.5125 21.8611 56.433 21.8611C57.2512 21.8611 57.7967 21.9964 58.274 22.1994L58.4785 22.3009L58.8194 20.3384Z" fill="#004686"/>
<path d="M65.0568 20.1689H63.1817C62.6022 20.1689 62.159 20.3042 61.8862 20.8456L58.3066 28.9666H60.8635L61.3408 27.6808H64.4772L64.7499 29.0342H66.9999L65.0568 20.135V20.1689ZM62.0567 25.8197L63.0112 23.3495L63.3522 22.4698L63.5226 23.2481L64.0681 25.7858H62.0226L62.0567 25.8197Z" fill="#004686"/>
<path d="M45.5227 20.1689L43.1363 26.1919L42.8976 24.9738C42.4545 23.5526 41.0908 22.0299 39.4885 21.2516L41.7045 29.0342H44.2954L48.1137 20.135H45.5227V20.1689Z" fill="#004686"/>
<path d="M40.9546 20.1693H37V20.3385C40.0683 21.0829 42.1137 22.8424 42.8978 24.9742L42.0456 20.9137C41.9092 20.3385 41.4319 20.1693 40.9546 20.1693Z" fill="#EF9B11"/>
<g clip-path="url(#clip0_10132_31807)">
<path d="M76.0839 15H96.0839V25.7966L95.0939 27.3434L96.0839 28.72V35H76.0839V24.8221L76.7026 24.1106L76.0839 23.43V15Z" fill="#016FD0"/>
<path d="M79.9663 28.9366V25.7966H83.291L83.6477 26.2616L84.0162 25.7966H96.0839V28.7201C96.0839 28.7201 95.7683 28.9335 95.4033 28.9366H88.7211L88.319 28.4416V28.9366H87.0011V28.0917C87.0011 28.0917 86.8211 28.2096 86.4319 28.2096H85.9833V28.9366H83.988L83.6318 28.4616L83.2701 28.9366L79.9663 28.9366ZM76.0839 23.43L76.8336 21.6821H78.1302L78.5556 22.6612V21.6821H80.1674L80.4207 22.3898L80.6662 21.6821H87.9013V22.0379C87.9013 22.0379 88.2817 21.6821 88.9068 21.6821L91.2543 21.6903L91.6724 22.6566V21.6821H93.0212L93.3924 22.2372V21.6821H94.7536V24.8221H93.3924L93.0367 24.2653V24.8221H91.055L90.8557 24.3271H90.323L90.1269 24.8221H88.783C88.2452 24.8221 87.9013 24.4736 87.9013 24.4736V24.8221H85.875L85.4729 24.3272V24.8221H77.9381L77.7389 24.3272H77.2079L77.0102 24.8221H76.0839V23.43Z" fill="white"/>
<path d="M77.0989 22.0692L76.0876 24.4204H76.746L76.9326 23.9496H78.0173L78.2029 24.4204H78.8757L77.8655 22.0692H77.0989ZM77.473 22.6164L77.8036 23.4391H77.1414L77.473 22.6164ZM78.9453 24.42V22.0688L79.8809 22.0723L80.425 23.5882L80.9562 22.0688H81.8842V24.42H81.2965V22.6876L80.6734 24.42H80.1579L79.5331 22.6876V24.42H78.9453ZM82.2864 24.42V22.0688H84.2044V22.5948H82.8804V22.9969H84.1735V23.4919H82.8804V23.9095H84.2044V24.42H82.2864ZM84.5447 22.0692V24.4204H85.1325V23.5851H85.38L86.0847 24.4204H86.803L86.0296 23.5542C86.347 23.5274 86.6745 23.255 86.6745 22.832C86.6745 22.3373 86.2861 22.0692 85.8527 22.0692H84.5447ZM85.1325 22.5952H85.8044C85.9656 22.5952 86.0828 22.7212 86.0828 22.8426C86.0828 22.9988 85.9309 23.0901 85.8131 23.0901H85.1325V22.5952ZM87.5146 24.42H86.9144V22.0688H87.5146V24.42ZM88.9376 24.42H88.8081C88.1813 24.42 87.8007 23.9261 87.8007 23.2541C87.8007 22.5654 88.177 22.0688 88.9685 22.0688H89.6182V22.6257H88.9448C88.6235 22.6257 88.3962 22.8765 88.3962 23.2599C88.3962 23.7152 88.6561 23.9064 89.0304 23.9064H89.1851L88.9376 24.42ZM90.2166 22.0692L89.2054 24.4204H89.8638L90.0503 23.9496H91.135L91.3206 24.4204H91.9935L90.9832 22.0692H90.2166ZM90.5907 22.6164L90.9214 23.4391H90.2591L90.5907 22.6164ZM92.0621 24.42V22.0688H92.8094L93.7636 23.546V22.0688H94.3514V24.42H93.6282L92.6499 22.9041V24.42H92.0621ZM80.3684 28.5344V26.1833H82.2864V26.7092H80.9624V27.1114H82.2555V27.6064H80.9624V28.024H82.2864V28.5344H80.3684ZM89.7667 28.5344V26.1833H91.6847V26.7092H90.3606V27.1114H91.6476V27.6064H90.3606V28.024H91.6847V28.5344H89.7667ZM82.3608 28.5344L83.2947 27.3734L82.3386 26.1833H83.0791L83.6486 26.919L84.2199 26.1833H84.9314L83.9879 27.3589L84.9235 28.5344H84.1831L83.6302 27.8103L83.0908 28.5344H82.3608ZM84.9933 26.1837V28.5348H85.5965V27.7924H86.2153C86.7388 27.7924 87.1356 27.5146 87.1356 26.9745C87.1356 26.5271 86.8244 26.1837 86.2916 26.1837H84.9933ZM85.5965 26.7154H86.2481C86.4173 26.7154 86.5381 26.8191 86.5381 26.9861C86.5381 27.143 86.4179 27.2568 86.2462 27.2568H85.5965V26.7154ZM87.3908 26.1833V28.5344H87.9786V27.6991H88.2261L88.9308 28.5344H89.6491L88.8757 27.6682C89.1931 27.6414 89.5205 27.369 89.5205 26.9461C89.5205 26.4513 89.1322 26.1833 88.6988 26.1833H87.3908ZM87.9786 26.7092H88.6505C88.8117 26.7092 88.9289 26.8353 88.9289 26.9567C88.9289 27.1129 88.777 27.2042 88.6592 27.2042H87.9786V26.7092ZM91.9569 28.5344V28.024H93.1333C93.3073 28.024 93.3827 27.9299 93.3827 27.8268C93.3827 27.7279 93.3076 27.628 93.1333 27.628H92.6017C92.1396 27.628 91.8823 27.3465 91.8823 26.9238C91.8823 26.5468 92.1179 26.1833 92.8046 26.1833H93.9492L93.7017 26.7123H92.7118C92.5225 26.7123 92.4643 26.8116 92.4643 26.9064C92.4643 27.0039 92.5363 27.1114 92.6808 27.1114H93.2377C93.7527 27.1114 93.9763 27.4036 93.9763 27.7862C93.9763 28.1975 93.7272 28.5344 93.2096 28.5344H91.9569ZM94.1142 28.5344V28.024H95.2905C95.4646 28.024 95.54 27.9299 95.54 27.8268C95.54 27.7279 95.4649 27.628 95.2905 27.628H94.759C94.2969 27.628 94.0396 27.3465 94.0396 26.9238C94.0396 26.5468 94.2752 26.1833 94.9619 26.1833H96.1065L95.859 26.7123H94.8691C94.6798 26.7123 94.6216 26.8116 94.6216 26.9064C94.6216 27.0039 94.6935 27.1114 94.8381 27.1114H95.395C95.91 27.1114 96.1336 27.4036 96.1336 27.7862C96.1336 28.1975 95.8845 28.5344 95.3669 28.5344H94.1142Z" fill="#016FD0"/>
</g>
<defs>
<clipPath id="clip0_10132_31807">
<rect width="20.2174" height="20" fill="white" transform="translate(76 15)"/>
</clipPath>
</defs>
</svg>
