<svg width="104" height="50" viewBox="0 0 104 50" fill="none" xmlns="http://www.w3.org/2000/svg">
<rect width="104" height="50" rx="3" fill="white"/>
<path d="M43.2262 19.4766H39.6412C39.3959 19.4766 39.1873 19.6517 39.149 19.8897L37.6991 28.9239C37.6702 29.1022 37.8107 29.2629 37.9947 29.2629H39.7062C39.9515 29.2629 40.1602 29.0877 40.1984 28.8492L40.5895 26.4126C40.6272 26.174 40.8364 25.9989 41.0812 25.9989H42.2161C44.5775 25.9989 45.9404 24.8759 46.2964 22.6504C46.4568 21.6768 46.3032 20.9118 45.8393 20.376C45.3298 19.7877 44.4261 19.4766 43.2262 19.4766ZM43.6398 22.7761C43.4437 24.0403 42.4609 24.0403 41.5105 24.0403H40.9695L41.349 21.6794C41.3716 21.5367 41.4974 21.4316 41.6442 21.4316H41.8921C42.5395 21.4316 43.1502 21.4316 43.4657 21.7942C43.6539 22.0106 43.7116 22.332 43.6398 22.7761ZM53.9423 22.7354H52.2255C52.0793 22.7354 51.953 22.8405 51.9304 22.9832L51.8544 23.4551L51.7344 23.284C51.3627 22.754 50.534 22.5767 49.7068 22.5767C47.8097 22.5767 46.1894 23.9888 45.8739 25.9695C45.7098 26.9576 45.9431 27.9024 46.5134 28.5613C47.0365 29.1671 47.7851 29.4195 48.6757 29.4195C50.2042 29.4195 51.0519 28.4536 51.0519 28.4536L50.9753 28.9224C50.9465 29.1017 51.087 29.2624 51.2699 29.2624H52.8163C53.0621 29.2624 53.2697 29.0872 53.3085 28.8487L54.2363 23.0744C54.2657 22.8967 54.1257 22.7354 53.9423 22.7354ZM51.5493 26.019C51.3837 26.9828 50.6052 27.6299 49.6124 27.6299C49.1139 27.6299 48.7155 27.4727 48.4597 27.175C48.206 26.8793 48.1096 26.4584 48.1903 25.9896C48.3449 25.034 49.1365 24.3659 50.1141 24.3659C50.6016 24.3659 50.9979 24.525 51.2589 24.8254C51.5205 25.1288 51.6243 25.5523 51.5493 26.019ZM63.0853 22.7354H61.3601C61.1955 22.7354 61.0409 22.8158 60.9476 22.9502L58.5683 26.3945L57.5597 23.0847C57.4963 22.8776 57.3018 22.7354 57.0817 22.7354H55.3864C55.1804 22.7354 55.0373 22.9332 55.1028 23.1238L57.003 28.604L55.2166 31.0824C55.0761 31.2777 55.2176 31.546 55.4603 31.546H57.1834C57.3469 31.546 57.5 31.4677 57.5927 31.3359L63.3306 23.1965C63.4679 23.0017 63.3269 22.7354 63.0853 22.7354Z" fill="#253B80"/>
<path d="M68.7925 19.4771H65.207C64.9622 19.4771 64.7536 19.6522 64.7153 19.8902L63.2654 28.9244C63.2366 29.1027 63.3771 29.2634 63.56 29.2634H65.3999C65.5708 29.2634 65.7171 29.1408 65.7438 28.9739L66.1552 26.4131C66.1929 26.1746 66.4022 25.9994 66.647 25.9994H67.7814C70.1434 25.9994 71.5057 24.8764 71.8622 22.6509C72.0231 21.6773 71.8685 20.9123 71.4046 20.3765C70.8956 19.7882 69.9924 19.4771 68.7925 19.4771ZM69.2061 22.7766C69.0106 24.0408 68.0277 24.0408 67.0768 24.0408H66.5364L66.9164 21.6799C66.939 21.5372 67.0637 21.4321 67.211 21.4321H67.459C68.1058 21.4321 68.717 21.4321 69.0326 21.7947C69.2208 22.0111 69.2779 22.3326 69.2061 22.7766ZM79.5081 22.7359H77.7923C77.6451 22.7359 77.5198 22.841 77.4978 22.9837L77.4218 23.4556L77.3012 23.2846C76.9296 22.7545 76.1014 22.5773 75.2742 22.5773C73.3771 22.5773 71.7574 23.9893 71.4418 25.97C71.2782 26.9581 71.5105 27.9029 72.0808 28.5618C72.605 29.1676 73.3525 29.42 74.2431 29.42C75.7716 29.42 76.6193 28.4541 76.6193 28.4541L76.5427 28.9229C76.5139 29.1022 76.6544 29.2629 76.8384 29.2629H78.3842C78.629 29.2629 78.8376 29.0877 78.8759 28.8492L79.8043 23.0749C79.8326 22.8972 79.6921 22.7359 79.5081 22.7359ZM77.1151 26.0195C76.9506 26.9833 76.1711 27.6304 75.1783 27.6304C74.6808 27.6304 74.2814 27.4733 74.0255 27.1755C73.7718 26.8798 73.6764 26.4589 73.7561 25.9901C73.9118 25.0345 74.7023 24.3664 75.6799 24.3664C76.1674 24.3664 76.5637 24.5256 76.8247 24.8259C77.0874 25.1293 77.1912 25.5528 77.1151 26.0195ZM81.5319 19.7249L80.0606 28.9244C80.0318 29.1027 80.1722 29.2634 80.3552 29.2634H81.8345C82.0803 29.2634 82.2889 29.0883 82.3267 28.8497L83.7777 19.816C83.8065 19.6378 83.666 19.4766 83.4831 19.4766H81.8266C81.6804 19.4771 81.5544 19.5822 81.5319 19.7249Z" fill="#179BD7"/>
<path d="M22.8083 31.0186L23.0824 29.3072L22.4718 29.2933H19.5557L21.5822 16.6654C21.5885 16.6273 21.6089 16.5917 21.6388 16.5665C21.6687 16.5413 21.707 16.5273 21.7468 16.5273H26.6637C28.2961 16.5273 29.4226 16.8612 30.0107 17.52C30.2864 17.8291 30.462 18.1521 30.547 18.5076C30.6361 18.8806 30.6376 19.3262 30.5506 19.8696L30.5443 19.9093V20.2576L30.8201 20.4111C31.0523 20.5321 31.2368 20.6707 31.3783 20.8294C31.6142 21.0936 31.7668 21.4295 31.8312 21.8277C31.8978 22.2373 31.8758 22.7246 31.7668 23.2763C31.6409 23.911 31.4376 24.4638 31.1629 24.9161C30.9102 25.3328 30.5884 25.6785 30.2062 25.9464C29.8414 26.2009 29.4079 26.394 28.9178 26.5177C28.4428 26.6393 27.9013 26.7006 27.3074 26.7006H26.9248C26.6511 26.7006 26.3854 26.7974 26.1768 26.971C25.9676 27.1482 25.8292 27.3903 25.7868 27.6551L25.7579 27.8092L25.2736 30.8254L25.2516 30.9361C25.2458 30.9712 25.2358 30.9887 25.2211 31.0005C25.208 31.0113 25.1892 31.0186 25.1708 31.0186H22.8083Z" fill="#253B80"/>
<path d="M31.0803 19.9492C31.0657 20.0414 31.0489 20.1357 31.03 20.2326C30.3816 23.5043 28.1632 24.6345 25.3299 24.6345H23.8874C23.5409 24.6345 23.2489 24.8818 23.1949 25.2177L22.4563 29.8211L22.2472 31.1259C22.212 31.3464 22.385 31.5453 22.6115 31.5453H25.1701C25.473 31.5453 25.7304 31.3289 25.7781 31.0353L25.8033 30.9075L26.285 27.9032L26.3159 27.7383C26.3631 27.4436 26.621 27.2273 26.924 27.2273H27.3067C29.7856 27.2273 31.7261 26.2382 32.2933 23.376C32.5303 22.1803 32.4076 21.182 31.7807 20.4798C31.5909 20.2681 31.3555 20.0924 31.0803 19.9492Z" fill="#179BD7"/>
<path d="M30.4018 19.6839C30.3028 19.6556 30.2005 19.6298 30.0957 19.6066C29.9903 19.584 29.8824 19.5639 29.7712 19.5464C29.3823 19.4845 28.9561 19.4552 28.4995 19.4552H24.6457C24.5508 19.4552 24.4606 19.4763 24.3799 19.5144C24.2022 19.5984 24.0701 19.7637 24.0381 19.9662L23.2183 25.0693L23.1947 25.2182C23.2487 24.8823 23.5407 24.635 23.8872 24.635H25.3297C28.163 24.635 30.3814 23.5043 31.0298 20.233C31.0492 20.1362 31.0655 20.0419 31.0801 19.9497C30.9161 19.8642 30.7384 19.791 30.547 19.7287C30.4999 19.7133 30.4511 19.6983 30.4018 19.6839Z" fill="#222D65"/>
<path d="M24.0396 19.9662C24.0716 19.7637 24.2037 19.5983 24.3814 19.5149C24.4626 19.4768 24.5523 19.4556 24.6471 19.4556H28.501C28.9576 19.4556 29.3837 19.485 29.7727 19.5468C29.8838 19.5643 29.9918 19.5844 30.0972 19.6071C30.202 19.6303 30.3042 19.656 30.4033 19.6844C30.4526 19.6988 30.5013 19.7137 30.549 19.7287C30.7404 19.791 30.9181 19.8647 31.0821 19.9497C31.275 18.7406 31.0806 17.9174 30.4154 17.172C29.682 16.3513 28.3584 16 26.6648 16H21.7478C21.4018 16 21.1067 16.2473 21.0533 16.5837L19.0052 29.3414C18.9649 29.5938 19.163 29.8215 19.422 29.8215H22.4576L23.2198 25.0692L24.0396 19.9662Z" fill="#253B80"/>
</svg>
